<svg width="16" height="19" viewBox="0 0 16 19" fill="none" xmlns="http://www.w3.org/2000/svg">
<mask id="mask0_59_135" style="mask-type:luminance" maskUnits="userSpaceOnUse" x="0" y="0" width="16" height="19">
<path d="M0.6875 0.405273H15.346V18.4063H0.6875V0.405273Z" fill="white"/>
</mask>
<g mask="url(#mask0_59_135)">
<path d="M12.9281 9.9697C12.9074 7.69243 14.7897 6.59826 14.8745 6.54448C13.8155 4.99527 12.169 4.7843 11.5816 4.75948C10.1813 4.61676 8.84724 5.58476 8.13572 5.58476C7.4242 5.58476 6.32797 4.78016 5.16554 4.80291C3.63702 4.82567 2.22846 5.69024 1.44041 7.0595C-0.146026 9.81044 1.03501 13.8913 2.58215 16.1272C3.33917 17.2193 4.23892 18.45 5.42409 18.4045C6.56583 18.359 6.99605 17.6661 8.37358 17.6661C9.75112 17.6661 10.14 18.4045 11.3438 18.3818C12.5703 18.3569 13.348 17.2648 14.0988 16.1686C14.9655 14.9007 15.3233 13.6721 15.344 13.608C15.3171 13.5976 12.953 12.6917 12.9281 9.9697Z" fill="black"/>
</g>
<path d="M10.6628 3.28031C11.2916 2.51915 11.7156 1.46014 11.5998 0.405273C10.6938 0.442504 9.5976 1.00924 8.94813 1.7704C8.36692 2.44262 7.85604 3.52024 7.99462 4.55442C9.00191 4.63302 10.034 4.0394 10.6628 3.28031Z" fill="black"/>
</svg>
