<svg width="18" height="19" viewBox="0 0 18 19" fill="none" xmlns="http://www.w3.org/2000/svg">
<path d="M16.3316 9.57427C16.3316 9.08077 16.2881 8.61202 16.2131 8.15527H9.15039V10.9745H13.1944C13.0129 11.8993 12.4819 12.6808 11.6944 13.2118V15.0868H14.1064C15.5194 13.7803 16.3316 11.8558 16.3316 9.57427Z" fill="#4285F4"/>
<path d="M9.1498 16.9049C11.1748 16.9049 12.8691 16.2299 14.1066 15.0862L11.6938 13.2112C11.0188 13.6612 10.1623 13.9364 9.1498 13.9364C7.1938 13.9364 5.5378 12.6172 4.9438 10.8359H2.45605V12.7672C3.68755 15.2174 6.2188 16.9049 9.1498 16.9049Z" fill="#34A853"/>
<path d="M4.94449 10.8362C4.78574 10.3759 4.70538 9.89216 4.70674 9.40522C4.70674 8.90497 4.79449 8.42422 4.94449 7.97422V6.04297H2.45674C1.92669 7.08449 1.65039 8.23658 1.65039 9.40522C1.65039 10.5739 1.92669 11.7259 2.45674 12.7675L4.94449 10.8362Z" fill="#FBBC05"/>
<path d="M9.1498 4.87377C10.2561 4.87377 11.2438 5.25552 12.0253 5.99877L14.1628 3.86127C12.8691 2.64927 11.1748 1.90527 9.1498 1.90527C6.2188 1.90527 3.68755 3.59277 2.45605 6.04302L4.9438 7.97427C5.5378 6.19302 7.1938 4.87377 9.1498 4.87377Z" fill="#EA4335"/>
</svg>
